#!OML:ASF H:\MichaelJackson\Top Level 1\Subject 1\Session 1\male.ASF
:FULLY-SPECIFIED
:DEGREES
346
root 3.86585 15.7921 16.6231 -1.35161 38.8 -3.60739
lowerback 4.16338 -3.49331 -1.13687
upperback 0.238042 -4.6862 0.983394
thorax -1.90975 -2.325 1.90665
lowerneck -4.65842 -10.5116 -6.18935
upperneck 8.26672 -14.0595 4.79335
head 4.00353 -6.93388 1.6658
rclavicle -1.09207e-014 -7.55382e-015
rhumerus -53.1357 5.66462 -96.1914
rradius 96.1062
rwrist 1.57058
rhand 1.73885 -15.6931
rfingers 7.12502
rthumb 27.2548 -43.7438
lclavicle -1.09207e-014 -7.55382e-015
lhumerus -52.5224 -28.3243 112.183
lradius 66.9169
lwrist 16.1461
lhand 25.3294 20.1017
lfingers 7.12502
lthumb 49.4634 41.6017
rfemur -21.0522 -0.0322167 -6.23433
rtibia 39.703
rfoot 8.49634 -19.0486
rtoes 30.0522
lfemur -28.5196 27.0869 -8.53004
ltibia 58.9276
lfoot -22.6299 3.77954
ltoes 3.65942
347
root 3.79701 15.739 16.7158 -0.768925 38.865 -3.51298
lowerback 3.64203 -3.45283 -0.917223
upperback 0.0953898 -4.62262 0.860949
thorax -1.79485 -2.29636 1.62682
lowerneck -4.5174 -10.6169 -6.2144
upperneck 8.11506 -14.2227 5.01409
head 3.96117 -7.00918 1.73422
rclavicle 8.67944e-014 9.54166e-015
rhumerus -53.4376 6.52937 -96.9682
rradius 96.5661
rwrist 3.60527
rhand 1.07125 -14.5867
rfingers 7.12502
rthumb 26.616 -42.736
lclavicle 8.67944e-014 9.54166e-015
lhumerus -52.6235 -28.2038 111.96
lradius 67.1397
lwrist 15.5543
lhand 25.9199 19.9359
lfingers 7.12502
lthumb 50.0043 41.1564
rfemur -21.6377 -1.46279 -6.21447
rtibia 41.028
rfoot 9.44332 -19.6299
rtoes 26.6109
lfemur -28.8802 25.8463 -7.81829
ltibia 59.1496
lfoot -22.9669 2.87765
ltoes 3.18633
348
root 3.72136 15.6838 16.8111 0.0649343 39.0262 -3.208
lowerback 2.98363 -3.44593 -0.888
upperback -0.0563546 -4.61305 0.666068
thorax -1.60113 -2.29406 1.37258
lowerneck -4.37393 -10.7114 -6.21353
upperneck 7.90793 -14.3765 5.29618
head 3.90412 -7.07745 1.81927
rclavicle 3.61043e-014 3.57812e-015
rhumerus -53.7953 7.33102 -97.8317
rradius 96.9668
rwrist 5.37464
rhand -0.739404 -13.6389
rfingers 7.12502
rthumb 24.882 -42.0395
lclavicle 3.61043e-014 3.57812e-015
lhumerus -52.718 -28.0957 111.645
lradius 67.3614
lwrist 15.0845
lhand 26.4956 19.7302
lfingers 7.12502
lthumb 50.5306 40.6698
rfemur -22.4413 -3.04296 -6.29775
rtibia 42.6613
rfoot 10.1467 -20.6164
rtoes 21.917
lfemur -29.3576 24.4473 -7.26648
ltibia 59.2754
lfoot -23.2816 1.8983
ltoes 2.17059
349
root 3.63873 15.6288 16.9107 1.07013 39.274 -2.74937
lowerback 2.22809 -3.46549 -1.0241
upperback -0.206468 -4.64232 0.415625
thorax -1.34167 -2.31042 1.1481
lowerneck -4.22715 -10.8026 -6.19618
upperneck 7.67555 -14.5307 5.63667
head 3.84263 -7.14394 1.91984
rclavicle 9.98893e-014 -5.56597e-015
rhumerus -54.2066 8.0272 -98.7663
rradius 97.2894
rwrist 6.74173
rhand -3.49824 -12.924
rfingers 7.12502
rthumb 22.2357 -41.6649
lclavicle 9.98893e-014 -5.56597e-015
lhumerus -52.8147 -28.0276 111.268
lradius 67.5556
lwrist 14.8626
lhand 27.0376 19.6
lfingers 7.12502
lthumb 51.025 40.2675
rfemur -23.356 -4.57563 -6.44846
rtibia 44.3957
rfoot 10.5699 -21.8051
rtoes 16.3704
lfemur -29.8991 22.9426 -6.78611
ltibia 59.2914
lfoot -23.5492 0.817225
ltoes 0.628589
350
root 3.54948 15.5762 17.0155 2.15981 39.6002 -2.18165
lowerback 1.44222 -3.51051 -1.30626
upperback -0.346475 -4.70379 0.129722
thorax -1.04545 -2.34204 0.966109
lowerneck -4.08117 -10.8933 -6.17665
upperneck 7.45831 -14.6873 6.0143
head 3.78933 -7.21065 2.03013
rclavicle 2.16178e-015 -8.74653e-015
rhumerus -54.668 8.6069 -99.7392
rradius 97.522
rwrist 7.57998
rhand -6.89482 -12.453
rfingers 7.12502
rthumb 18.972 -41.5478
lclavicle 2.16178e-015 -8.74653e-015
lhumerus -52.9113 -28.0073 110.853
lradius 67.7057
lwrist 14.9684
lhand 27.5484 19.6343
lfingers 7.12502
lthumb 51.4899 40.0381
rfemur -24.2744 -5.95759 -6.64045
rtibia 46.0754
rfoot 10.8093 -22.8713
rtoes 9.9779
lfemur -30.4375 21.3729 -6.30178
ltibia 59.1835
lfoot -23.7497 -0.402008
ltoes -1.39856
351
root 3.4543 15.5275 17.1258 3.21529 40.0027 -1.57105
lowerback 0.712246 -3.58326 -1.69905
upperback -0.461729 -4.79677 -0.159961
thorax -0.745747 -2.38876 0.843348
lowerneck -3.95343 -10.9821 -6.18584
upperneck 7.29819 -14.8416 6.40695
head 3.76018 -7.27608 2.14605
rclavicle -5.93869e-015 9.54166e-015
rhumerus -55.1799 9.08058 -100.714
rradius 97.6507
rwrist 7.90694
rhand -10.6609 -12.1967
rfingers 7.12502
rthumb 15.3471 -41.6072
lclavicle -5.93869e-015 9.54166e-015
lhumerus -52.9965 -28.0177 110.434
lradius 67.8038
lwrist 15.4194
lhand 27.9613 19.8093
lfingers 7.12502
lthumb 51.8651 39.9947
rfemur -25.0741 -7.13408 -6.8322
rtibia 47.5985
rfoot 10.9711 -23.5587
rtoes 2.77964
lfemur -30.884 19.7595 -5.71783
ltibia 58.9375
lfoot -23.8881 -1.81102
ltoes -3.83881
352
root 3.3541 15.4829 17.2409 4.16211 40.4163 -0.991813
lowerback 0.082823 -3.65517 -2.13456
upperback -0.558372 -4.88229 -0.439014
thorax -0.478832 -2.43138 0.759424
lowerneck -3.83366 -11.0755 -6.21483
upperneck 7.21836 -15.0025 6.78252
head 3.75799 -7.34521 2.25634
rclavicle -1.66408e-013 -1.59028e-015
rhumerus -55.7566 9.42264 -101.667
rradius 97.677
rwrist 7.77568
rhand -14.5669 -12.129
rfingers 7.12502
rthumb 11.5824 -41.789
lclavicle -1.66408e-013 -1.59028e-015
lhumerus -53.0836 -28.0752 110.04
lradius 67.8538
lwrist 16.1662
lhand 28.3592 20.2343
lfingers 7.12502
lthumb 52.2259 40.2048
rfemur -25.744 -8.09063 -6.97117
rtibia 48.9237
rfoot 11.0799 -23.7561
rtoes -4.66257
lfemur -31.1904 18.1517 -4.9535
ltibia 58.5436
lfoot -23.9915 -3.50449
ltoes -6.43063
353
root 3.25062 15.4411 17.3581 4.92143 40.7556 -0.505155
lowerback -0.387906 -3.70242 -2.5445
upperback -0.635164 -4.93192 -0.68987
thorax -0.280798 -2.45569 0.699335
lowerneck -3.74009 -11.1696 -6.27497
upperneck 7.24088 -15.1624 7.10667
head 3.79005 -7.41483 2.35143
rclavicle -4.45775e-014 -1.11319e-014
rhumerus -56.3943 9.6936 -102.575
rradius 97.596
rwrist 7.25664
rhand -18.4207 -12.2522
rfingers 7.12502
rthumb 7.86428 -42.0859
lclavicle -4.45775e-014 -1.11319e-014
lhumerus -53.161 -28.1483 109.68
lradius 67.8769
lwrist 17.0367
lhand 28.8151 20.9393
lfingers 7.12502
lthumb 52.6385 40.6578
rfemur -26.288 -8.83363 -7.02343
rtibia 50.0544
rfoot 11.16 -23.4219
rtoes -12.337
lfemur -31.2886 16.6004 -3.96274
ltibia 57.9879
lfoot -24.1136 -5.47852
ltoes -9.13299
354
root 3.14589 15.4017 17.4761 5.46735 41.0086 -0.140627
lowerback -0.697942 -3.72323 -2.88057
upperback -0.693419 -4.94724 -0.909863
thorax -0.158034 -2.46258 0.640472
lowerneck -3.67603 -11.2584 -6.3635
upperneck 7.3657 -15.3128 7.3677
head 3.8551 -7.48062 2.42799
rclavicle -5.87906e-014 7.95139e-015
rhumerus -57.0897 9.9328 -103.429
rradius 97.4116
rwrist 6.47054
rhand -22.0872 -12.5997
rfingers 7.12502
rthumb 4.32461 -42.5356
lclavicle -5.87906e-014 7.95139e-015
lhumerus -53.2378 -28.2252 109.364
lradius 67.8908
lwrist 17.8512
lhand 29.2728 21.7799
lfingers 7.12502
lthumb 53.052 41.2393
rfemur -26.6955 -9.42855 -6.97332
rtibia 51.0249
rfoot 11.0753 -22.6917
rtoes -19.6042
lfemur -31.1565 15.0839 -2.73539
ltibia 57.249
lfoot -24.3078 -7.77986
ltoes -11.7698
355
root 3.04211 15.3649 17.594 5.81128 41.1574 0.112687
lowerback -0.868957 -3.71221 -3.12397
upperback -0.731047 -4.92361 -1.11051
thorax -0.0991492 -2.44983 0.559868
lowerneck -3.63821 -11.3427 -6.45688
upperneck 7.57294 -15.4546 7.55397
head 3.94379 -7.54316 2.48009
rclavicle -8.50798e-014 1.35174e-014
rhumerus -57.8339 10.175 -104.228
rradius 97.1383
rwrist 5.5543
rhand -25.4611 -13.2218
rfingers 7.12502
rthumb 1.06626 -43.1988
lclavicle -8.50798e-014 1.35174e-014
lhumerus -53.3298 -28.3106 109.093
lradius 67.9083
lwrist 18.4032
lhand 29.7547 22.6045
lfingers 7.12502
lthumb 53.4863 41.784
rfemur -26.9691 -9.95432 -6.8329
rtibia 51.876
rfoot 10.5974 -21.8232
rtoes -25.5488
lfemur -30.7764 13.573 -1.30721
ltibia 56.2969
lfoot -24.6248 -10.4127
ltoes -14.2044
356
root 2.94128 15.33 17.7108 6.00573 41.1703 0.294363
lowerback -0.947838 -3.66758 -3.2819
upperback -0.749935 -4.8586 -1.30533
thorax -0.0804573 -2.41645 0.444721
lowerneck -3.62457 -11.4187 -6.54735
upperneck 7.83715 -15.5821 7.67367
head 4.04759 -7.59953 2.51033
rclavicle 6.1176e-014 -7.95139e-016
rhumerus -58.6189 10.4826 -104.981
rradius 96.7967
rwrist 4.62579
rhand -28.4059 -14.2099
rfingers 7.12502
rthumb -1.77796 -44.1822
lclavicle 6.1176e-014 -7.95139e-016
lhumerus -53.4502 -28.3997 108.866
lradius 67.9363
lwrist 18.5022
lhand 30.253 23.2056
lfingers 7.12502
lthumb 53.9343 42.0879
rfemur -27.1506 -10.4781 -6.63312
rtibia 52.6432
rfoot 9.71028 -20.9701
rtoes -30.0247
lfemur -30.1391 12.0485 0.250785
ltibia 55.0991
lfoot -25.1321 -13.2919
ltoes -16.4492
357
root 2.8447 15.2975 17.8255 6.08948 41.031 0.425312
lowerback -0.971051 -3.58706 -3.3518
upperback -0.751338 -4.74839 -1.50765
thorax -0.0839339 -2.36078 0.277523
lowerneck -3.61592 -11.4827 -6.61458
upperneck 8.11544 -15.6914 7.74518
head 4.14982 -7.6477 2.524
rclavicle -3.26504e-014 2.78299e-014
rhumerus -59.4332 10.8786 -105.695
rradius 96.4195
rwrist 3.82541
rhand -30.8037 -15.6449
rfingers 7.12502
rthumb -4.09355 -45.5853
lclavicle -3.26504e-014 2.78299e-014
lhumerus -53.6103 -28.4978 108.674
lradius 67.9682
lwrist 18.0373
lhand 30.761 23.3354
lfingers 7.12502
lthumb 54.3898 41.9064
rfemur -27.2735 -11.0415 -6.38787
rtibia 53.3411
rfoot 8.45321 -20.2345
rtoes -33.2208
lfemur -29.2463 10.4831 1.88532
ltibia 53.6338
lfoot -25.8015 -16.4377
ltoes -18.1257
358
root 2.75334 15.2665 17.9379 6.14273 40.7327 0.579355
lowerback -0.985509 -3.48078 -3.38783
upperback -0.736919 -4.60395 -1.72721
thorax -0.0805116 -2.28838 0.0745599
lowerneck -3.61267 -11.5288 -6.65692
upperneck 8.37984 -15.7736 7.78087
head 4.24211 -7.68344 2.526
rclavicle 6.27166e-014 1.51076e-014
rhumerus -60.2675 11.4097 -106.368
rradius 96.0432
rwrist 3.23271
rhand -32.5335 -17.5317
rfingers 7.12502
rthumb -5.76382 -47.4333
lclavicle 6.27166e-014 1.51076e-014
lhumerus -53.8036 -28.5768 108.499
lradius 68.0047
lwrist 17.0006
lhand 31.2476 22.8431
lfingers 7.12502
lthumb 54.825 41.1076
rfemur -27.3681 -11.6789 -6.15877
rtibia 53.9698
rfoot 6.86692 -19.6155
rtoes -35.533
lfemur -28.1174 8.85288 3.48749
ltibia 51.8977
lfoot -26.6124 -19.7178
ltoes -19.2454
